<svg width="412" height="512" viewBox="0 0 412 512" fill="none" xmlns="http://www.w3.org/2000/svg">
<path d="M55.093 248.635C82.3996 248.635 104.536 226.499 104.536 199.192C104.536 171.885 82.3996 149.749 55.093 149.749C27.7864 149.749 5.65002 171.885 5.65002 199.192C5.65002 226.499 27.7864 248.635 55.093 248.635Z" fill="#F6EDD4"/>
<path d="M77.402 203.43C104.709 203.43 126.845 181.294 126.845 153.987C126.845 126.68 104.709 104.544 77.402 104.544C50.0954 104.544 27.959 126.68 27.959 153.987C27.959 181.294 50.0954 203.43 77.402 203.43Z" fill="#F6EDD4"/>
<path d="M135.507 252.873C162.814 252.873 184.95 230.737 184.95 203.43C184.95 176.123 162.814 153.987 135.507 153.987C108.2 153.987 86.064 176.123 86.064 203.43C86.064 230.737 108.2 252.873 135.507 252.873Z" fill="#F6EDD4"/>
<path d="M112.303 153.979C139.61 153.979 161.746 131.843 161.746 104.536C161.746 77.2294 139.61 55.093 112.303 55.093C84.9964 55.093 62.86 77.2294 62.86 104.536C62.86 131.843 84.9964 153.979 112.303 153.979Z" fill="#F6EDD4"/>
<path d="M211.79 252.873C239.097 252.873 261.233 230.737 261.233 203.43C261.233 176.123 239.097 153.987 211.79 153.987C184.483 153.987 162.347 176.123 162.347 203.43C162.347 230.737 184.483 252.873 211.79 252.873Z" fill="#F6EDD4"/>
<path d="M245.792 144.1C273.099 144.1 295.235 121.964 295.235 94.657C295.235 67.3504 273.099 45.214 245.792 45.214C218.485 45.214 196.349 67.3504 196.349 94.657C196.349 121.964 218.485 144.1 245.792 144.1Z" fill="#F6EDD4"/>
<path d="M177.279 144.1C204.586 144.1 226.722 121.964 226.722 94.657C226.722 67.3504 204.586 45.214 177.279 45.214C149.972 45.214 127.836 67.3504 127.836 94.657C127.836 121.964 149.972 144.1 177.279 144.1Z" fill="#F6EDD4"/>
<path d="M196.349 193.543C223.656 193.543 245.792 171.407 245.792 144.1C245.792 116.793 223.656 94.657 196.349 94.657C169.042 94.657 146.906 116.793 146.906 144.1C146.906 171.407 169.042 193.543 196.349 193.543Z" fill="#F6EDD4"/>
<path d="M146.906 203.422C174.213 203.422 196.349 181.286 196.349 153.979C196.349 126.672 174.213 104.536 146.906 104.536C119.599 104.536 97.463 126.672 97.463 153.979C97.463 181.286 119.599 203.422 146.906 203.422Z" fill="#F6EDD4"/>
<path d="M291.698 228.858C319.005 228.858 341.141 206.722 341.141 179.415C341.141 152.108 319.005 129.972 291.698 129.972C264.391 129.972 242.255 152.108 242.255 179.415C242.255 206.722 264.391 228.858 291.698 228.858Z" fill="#F6EDD4"/>
<path d="M346.088 255.698C373.395 255.698 395.531 233.562 395.531 206.255C395.531 178.948 373.395 156.812 346.088 156.812C318.781 156.812 296.645 178.948 296.645 206.255C296.645 233.562 318.781 255.698 346.088 255.698Z" fill="#F6EDD4"/>
<path d="M362.027 237.335C389.334 237.335 411.47 215.199 411.47 187.892C411.47 160.585 389.334 138.449 362.027 138.449C334.72 138.449 312.584 160.585 312.584 187.892C312.584 215.199 334.72 237.335 362.027 237.335Z" fill="#F6EDD4"/>
<path d="M289.511 275.475C316.818 275.475 338.954 253.339 338.954 226.032C338.954 198.725 316.818 176.589 289.511 176.589C262.204 176.589 240.068 198.725 240.068 226.032C240.068 253.339 262.204 275.475 289.511 275.475Z" fill="#F6EDD4"/>
<path d="M401.185 124.304C401.185 126.18 401.107 128.055 400.873 129.93C400.717 131.572 400.482 133.213 400.17 134.775C400.092 135.323 400.013 135.791 399.858 136.338C399.545 137.823 399.154 139.309 398.685 140.715C398.138 142.434 397.513 144.153 396.81 145.795C396.185 147.437 395.403 148.999 394.544 150.562V150.64H394.466C390.558 157.907 385.01 164.16 378.367 168.849C369.301 175.49 358.204 179.398 346.091 179.398C344.45 179.398 342.808 179.32 341.168 179.086C334.603 178.618 328.352 176.898 322.725 174.163C320.302 173.069 318.036 171.818 315.848 170.334C315.144 169.943 314.441 169.475 313.816 168.85C311.628 167.365 309.596 165.645 307.72 163.847C298.655 155.017 292.637 143.216 291.309 130.009C291.074 128.133 290.997 126.258 290.997 124.304C290.997 123.288 290.997 122.272 291.153 121.256C292.638 92.263 316.708 69.21 346.092 69.21H346.483L360.784 71.242C370.396 73.82 378.915 79.057 385.557 86.011C386.026 86.48 386.495 86.872 386.885 87.34C387.276 87.73 387.588 88.043 387.823 88.434C387.979 88.59 388.136 88.825 388.292 88.981C389.621 90.466 390.715 91.951 391.731 93.513C392.513 94.608 393.216 95.701 393.841 96.874C394.154 97.421 394.466 97.968 394.779 98.516C396.342 101.485 397.67 104.611 398.686 107.894C398.843 108.441 398.999 108.987 399.077 109.535C399.077 109.535 399.155 109.535 399.155 109.613C399.546 110.864 399.859 112.114 400.093 113.442C400.795 116.957 401.185 120.553 401.185 124.304Z" fill="#F6EDD4"/>
<path d="M346.794 74.914C346.794 101.016 328.586 122.897 304.203 128.523C300.218 129.54 295.997 130.008 291.699 130.008H291.308C287.869 130.008 284.509 129.618 281.305 128.992C273.49 127.508 266.301 124.382 260.127 120.006C253.719 115.551 248.326 109.768 244.419 103.047C243.481 101.64 242.7 100.155 241.996 98.593C238.557 91.402 236.604 83.353 236.604 74.914C236.604 63.973 239.808 53.813 245.357 45.217C250.124 37.637 256.845 31.306 264.738 26.93C272.709 22.399 281.853 19.819 291.699 19.819C314.128 19.819 333.431 33.182 341.949 52.407L346.482 69.21C346.715 71.085 346.794 72.96 346.794 74.914Z" fill="#F6EDD4"/>
<path d="M55.093 191.414C85.52 191.414 110.186 166.748 110.186 136.321C110.186 105.894 85.52 81.228 55.093 81.228C24.666 81.228 0 105.894 0 136.321C0 166.748 24.666 191.414 55.093 191.414Z" fill="#F6EDD4"/>
<path d="M86.0639 155.401C116.491 155.401 141.157 130.735 141.157 100.308C141.157 69.881 116.491 45.215 86.0639 45.215C55.6369 45.215 30.9709 69.881 30.9709 100.308C30.9709 130.735 55.6369 155.401 86.0639 155.401Z" fill="#F6EDD4"/>
<path d="M141.158 118.06C171.585 118.06 196.251 93.394 196.251 62.967C196.251 32.54 171.585 7.87399 141.158 7.87399C110.731 7.87399 86.0649 32.54 86.0649 62.967C86.0649 93.394 110.731 118.06 141.158 118.06Z" fill="#F6EDD4"/>
<path d="M217.441 110.186C247.868 110.186 272.534 85.52 272.534 55.093C272.534 24.666 247.868 0 217.441 0C187.014 0 162.348 24.666 162.348 55.093C162.348 85.52 187.014 110.186 217.441 110.186Z" fill="#F6EDD4"/>
<path d="M273.736 216.947C301.043 216.947 323.179 194.811 323.179 167.504C323.179 140.197 301.043 118.061 273.736 118.061C246.429 118.061 224.293 140.197 224.293 167.504C224.293 194.811 246.429 216.947 273.736 216.947Z" fill="#F6EDD4"/>
<path d="M88.59 488.164H41.701L34.902 436.664L19.7409 320.848L5.67395 214.096H62.879L66.0049 247.388L68.3489 272.24L79.603 391.963L87.8089 479.646L88.59 488.164Z" fill="#D14846"/>
<path d="M135.507 488.161H88.589L62.86 214.121H120.07L135.507 488.161Z" fill="white"/>
<path d="M182.425 488.161H135.507L120.07 214.121H177.279L182.425 488.161Z" fill="#D14846"/>
<path d="M229.343 488.161H182.425L177.279 214.121H234.489L229.343 488.161Z" fill="white"/>
<path d="M276.261 488.161H229.343L234.489 214.121H291.698L276.261 488.161Z" fill="#D14846"/>
<path d="M323.179 488.161H276.261L291.698 214.121H348.908L323.179 488.161Z" fill="white"/>
<path d="M370.097 488.161H323.179L348.908 214.121H406.117L370.097 488.161Z" fill="#D14846"/>
<path d="M370.16 480.818H41.701V512H370.16V480.818Z" fill="#F2F2F2"/>
<path opacity="0.3" d="M249.102 73.698C249.102 67.609 244.12 62.628 238.031 62.628C234.726 62.628 231.783 64.125 229.75 66.44C227.967 62.702 224.178 60.085 219.781 60.085C216.755 60.085 214.005 61.319 212.002 63.304C209.998 61.319 207.249 60.085 204.223 60.085C198.134 60.085 193.152 65.067 193.152 71.155C193.152 76.475 196.955 80.947 201.977 81.993C201.743 82.886 201.579 83.805 201.579 84.768C201.579 90.857 206.561 95.838 212.65 95.838C215.628 95.838 218.33 94.634 220.325 92.704C221.402 93.056 222.529 93.296 223.72 93.296C223.784 93.296 223.844 93.278 223.908 93.277C225.925 96.053 229.172 97.884 232.845 97.884C238.934 97.884 243.916 92.903 243.916 86.814C243.916 85.603 243.67 84.456 243.307 83.363C246.737 81.476 249.102 77.869 249.102 73.698Z" fill="#E4AC23"/>
<path opacity="0.3" d="M304.453 163.564C307.208 169.3 314.155 171.739 319.891 168.984C323.004 167.489 325.1 164.747 325.968 161.645C329.339 164.36 334.093 165.111 338.235 163.122C341.086 161.753 343.118 159.346 344.107 156.57C346.893 157.533 350.041 157.452 352.892 156.083C358.628 153.328 361.067 146.381 358.313 140.645C355.906 135.633 350.299 133.141 345.095 134.428C344.912 133.481 344.65 132.541 344.214 131.633C341.459 125.897 334.512 123.458 328.776 126.213C325.971 127.56 323.969 129.917 322.963 132.638C321.789 132.794 320.619 133.078 319.497 133.617C319.437 133.646 319.388 133.69 319.328 133.72C316.172 132.018 312.284 131.762 308.824 133.424C303.088 136.179 300.648 143.126 303.403 148.862C303.951 150.003 304.701 150.972 305.538 151.838C303.162 155.166 302.566 159.634 304.453 163.564Z" fill="#E4AC23"/>
<path opacity="0.3" d="M74.5169 136.069C71.1249 142.037 73.2329 149.695 79.2009 153.087C82.4399 154.928 86.1589 155.101 89.4419 153.964C89.1069 158.621 91.3629 163.297 95.6729 165.747C98.6389 167.433 102.022 167.755 105.091 166.925C105.949 169.987 107.956 172.728 110.922 174.414C116.89 177.806 124.549 175.699 127.941 169.731C130.905 164.517 129.669 158.014 125.329 154.192C126.056 153.448 126.729 152.638 127.266 151.694C130.658 145.726 128.55 138.068 122.583 134.675C119.664 133.016 116.345 132.691 113.314 133.471C112.454 132.526 111.483 131.663 110.316 131C110.253 130.964 110.184 130.948 110.121 130.914C109.691 127.07 107.528 123.466 103.928 121.42C97.9599 118.028 90.3019 120.135 86.9099 126.102C86.2349 127.289 85.8369 128.55 85.5839 129.824C81.1689 129.763 76.8409 131.981 74.5169 136.069Z" fill="#E4AC23"/>
<path opacity="0.06" d="M41.701 488.165V493.166V503.403H51.939H370.16V487.93L406.109 214.097H403.921C405.171 212.143 406.266 210.033 407.281 207.845C407.594 207.063 407.906 206.282 408.219 205.501C409.079 203.235 409.86 200.89 410.329 198.389C410.563 197.529 410.72 196.67 410.798 195.81C410.954 195.419 411.033 194.95 411.033 194.56C411.033 194.404 411.111 194.169 411.111 194.013C411.189 193.31 411.267 192.606 411.345 191.981C411.345 191.903 411.345 191.746 411.345 191.668C411.423 190.418 411.501 189.167 411.501 187.917C411.501 186.51 411.423 185.182 411.345 183.775C411.267 183.306 411.267 182.837 411.189 182.368C411.111 181.274 410.955 180.18 410.642 179.086C410.642 178.617 410.486 178.226 410.408 177.758C410.174 176.586 409.939 175.413 409.47 174.241C409.47 174.163 409.47 174.085 409.47 174.007C409.392 173.773 409.392 173.46 409.236 173.225C409.236 173.069 409.158 172.991 409.08 172.834C408.846 171.896 408.533 171.037 408.142 170.177C407.908 169.474 407.673 168.77 407.282 168.067C407.282 167.989 407.282 167.989 407.204 167.911C406.891 167.051 406.501 166.192 406.032 165.41C405.407 164.16 404.782 162.987 404 161.815C403.375 160.799 402.75 159.783 401.968 158.845C401.734 158.454 401.421 158.063 401.108 157.673C400.405 156.657 399.623 155.719 398.685 154.86C398.451 154.469 398.138 154.157 397.825 153.844L397.747 153.766C396.966 152.906 396.262 152.203 395.402 151.5C395.168 151.187 394.855 150.875 394.542 150.64V150.562C395.402 148.999 396.183 147.436 396.808 145.795C397.511 144.154 398.136 142.435 398.683 140.715C399.152 139.308 399.543 137.823 399.855 136.339C400.011 135.792 400.089 135.323 400.168 134.776C400.481 133.213 400.715 131.572 400.871 129.931C401.105 128.055 401.184 126.18 401.184 124.304C401.184 120.553 400.793 116.958 400.09 113.441C399.856 112.113 399.543 110.862 399.152 109.612C399.152 109.534 399.074 109.534 399.074 109.534C398.996 108.987 398.84 108.44 398.683 107.893C397.667 104.611 396.339 101.485 394.776 98.515C394.463 97.968 394.151 97.421 393.838 96.874C393.213 95.702 392.51 94.608 391.728 93.514C390.712 91.951 389.618 90.466 388.29 88.981C388.134 88.825 387.977 88.59 387.821 88.434C387.196 87.574 386.414 86.793 385.633 85.933L385.555 86.011L380.554 91.013L326.866 144.701L320.38 151.187L307.72 163.847L294.747 176.82L260.596 210.971L257.47 214.097L257.001 214.566L240.277 231.29L234.025 237.542L219.333 252.234L178.774 292.793L127.43 344.137L79.603 391.964L34.902 436.665L41.701 488.165Z" fill="#040000"/>
</svg>
