<svg width="538" height="88" viewBox="0 0 538 88" fill="none" xmlns="http://www.w3.org/2000/svg">
<path d="M132.149 25.2788V68H126.41L125.374 62.341H125.055C124.152 63.8288 122.983 65.051 121.548 66.0074C120.113 66.9639 118.546 67.6546 116.846 68.0797C115.145 68.5579 113.365 68.797 111.505 68.797C108.105 68.797 105.235 68.2657 102.897 67.203C100.613 66.0871 98.8857 64.3868 97.7167 62.1019C96.5477 59.8171 95.9632 56.868 95.9632 53.2548V25.2788H103.057V52.7766C103.057 56.1773 103.827 58.7278 105.368 60.4281C106.909 62.1285 109.3 62.9787 112.542 62.9787C115.73 62.9787 118.227 62.3942 120.034 61.2252C121.894 60.0031 123.195 58.2496 123.939 55.9647C124.736 53.6268 125.135 50.8106 125.135 47.5161V25.2788H132.149ZM173.528 56.2039C173.528 58.9669 172.837 61.2783 171.456 63.1381C170.074 64.9978 168.108 66.4059 165.558 67.3624C163.007 68.3188 159.978 68.797 156.471 68.797C153.496 68.797 150.919 68.5579 148.74 68.0797C146.615 67.6015 144.728 66.9373 143.081 66.0871V59.7108C144.782 60.561 146.827 61.358 149.218 62.1019C151.663 62.7927 154.133 63.1381 156.631 63.1381C160.191 63.1381 162.768 62.5801 164.362 61.4643C165.956 60.2953 166.753 58.7544 166.753 56.8415C166.753 55.7788 166.461 54.8223 165.876 53.9721C165.292 53.122 164.229 52.2718 162.688 51.4216C161.201 50.5715 159.049 49.615 156.232 48.5523C153.469 47.4896 151.105 46.4269 149.139 45.3641C147.173 44.3014 145.658 43.0262 144.596 41.5384C143.533 40.0506 143.002 38.1377 143.002 35.7997C143.002 32.1865 144.463 29.3968 147.385 27.4308C150.361 25.4648 154.24 24.4818 159.022 24.4818C161.626 24.4818 164.043 24.7475 166.275 25.2788C168.56 25.757 170.685 26.4478 172.651 27.3511L170.26 32.9304C169.091 32.399 167.843 31.9474 166.514 31.5754C165.239 31.1503 163.937 30.8315 162.609 30.619C161.28 30.3533 159.925 30.2204 158.544 30.2204C155.674 30.2204 153.469 30.6987 151.928 31.6551C150.441 32.5584 149.697 33.8071 149.697 35.4012C149.697 36.5702 150.042 37.5798 150.733 38.4299C151.424 39.227 152.566 40.024 154.16 40.821C155.807 41.5649 157.986 42.4682 160.696 43.531C163.406 44.5405 165.717 45.5767 167.63 46.6394C169.543 47.7021 171.004 49.0039 172.014 50.5449C173.023 52.0327 173.528 53.919 173.528 56.2039ZM200.35 24.4818C204.016 24.4818 207.151 25.2788 209.755 26.8729C212.411 28.467 214.431 30.7252 215.812 33.6477C217.247 36.517 217.964 39.8912 217.964 43.7701V47.9944H188.713C188.819 52.8297 190.041 56.5227 192.379 59.0732C194.77 61.5706 198.091 62.8193 202.342 62.8193C205.052 62.8193 207.443 62.5801 209.516 62.1019C211.641 61.5706 213.82 60.8267 216.051 59.8702V66.0074C213.873 66.9639 211.721 67.6546 209.595 68.0797C207.47 68.5579 204.946 68.797 202.023 68.797C197.985 68.797 194.398 67.9734 191.263 66.3262C188.181 64.679 185.764 62.2348 184.01 58.9935C182.31 55.6991 181.46 51.6873 181.46 46.9582C181.46 42.2823 182.23 38.2705 183.771 34.923C185.365 31.5754 187.57 28.9983 190.387 27.1917C193.256 25.3851 196.577 24.4818 200.35 24.4818ZM200.27 30.2204C196.922 30.2204 194.266 31.3097 192.3 33.4883C190.387 35.6137 189.244 38.5893 188.872 42.4151H210.631C210.631 39.9709 210.259 37.8454 209.516 36.0388C208.772 34.2322 207.629 32.8241 206.088 31.8145C204.6 30.7518 202.661 30.2204 200.27 30.2204ZM244.86 11.0916C252.299 11.0916 257.719 12.5528 261.12 15.4753C264.521 18.3977 266.221 22.5158 266.221 27.8293C266.221 30.1673 265.822 32.4256 265.025 34.6041C264.281 36.7296 263.033 38.6425 261.279 40.3428C259.526 42.0432 257.188 43.3981 254.265 44.4077C251.343 45.3641 247.756 45.8424 243.505 45.8424H236.97V68H229.796V11.0916H244.86ZM244.223 17.2287H236.97V39.7052H242.708C246.322 39.7052 249.324 39.3332 251.715 38.5893C254.106 37.7923 255.886 36.5436 257.055 34.8433C258.224 33.1429 258.809 30.9112 258.809 28.1481C258.809 24.4818 257.64 21.7453 255.302 19.9387C252.964 18.132 249.271 17.2287 244.223 17.2287ZM314.24 46.5597C314.24 50.1198 313.762 53.2814 312.805 56.0444C311.902 58.7544 310.574 61.0658 308.82 62.9787C307.12 64.8916 305.021 66.3528 302.523 67.3624C300.079 68.3188 297.343 68.797 294.314 68.797C291.498 68.797 288.894 68.3188 286.503 67.3624C284.112 66.3528 282.04 64.8916 280.286 62.9787C278.533 61.0658 277.151 58.7544 276.142 56.0444C275.185 53.2814 274.707 50.1198 274.707 46.5597C274.707 41.8306 275.504 37.8454 277.098 34.6041C278.692 31.3097 280.977 28.8123 283.953 27.112C286.928 25.3585 290.462 24.4818 294.553 24.4818C298.432 24.4818 301.833 25.3585 304.755 27.112C307.731 28.8123 310.042 31.3097 311.689 34.6041C313.39 37.8454 314.24 41.8306 314.24 46.5597ZM281.96 46.5597C281.96 49.9073 282.385 52.8297 283.235 55.3271C284.139 57.7714 285.52 59.6577 287.38 60.9861C289.24 62.3145 291.604 62.9787 294.473 62.9787C297.343 62.9787 299.707 62.3145 301.567 60.9861C303.427 59.6577 304.782 57.7714 305.632 55.3271C306.535 52.8297 306.987 49.9073 306.987 46.5597C306.987 43.159 306.535 40.2631 305.632 37.872C304.729 35.4809 303.347 33.6477 301.487 32.3724C299.681 31.044 297.316 30.3798 294.394 30.3798C290.037 30.3798 286.875 31.8145 284.909 34.6839C282.943 37.5532 281.96 41.5118 281.96 46.5597ZM345.681 24.4818C350.941 24.4818 355.165 26.315 358.353 29.9813C361.595 33.6477 363.215 39.1738 363.215 46.5597C363.215 51.3951 362.471 55.4865 360.984 58.8341C359.549 62.1285 357.503 64.6259 354.846 66.3262C352.243 67.9734 349.161 68.797 345.601 68.797C343.422 68.797 341.483 68.5048 339.782 67.9203C338.082 67.3358 336.621 66.5919 335.399 65.6886C334.23 64.7321 333.22 63.696 332.37 62.5801H331.892C331.998 63.4835 332.104 64.6259 332.211 66.0074C332.317 67.3889 332.37 68.5845 332.37 69.5941V87.1289H325.356V25.2788H331.095L332.051 31.0972H332.37C333.22 29.8751 334.23 28.7592 335.399 27.7496C336.621 26.74 338.056 25.943 339.703 25.3585C341.403 24.774 343.396 24.4818 345.681 24.4818ZM344.405 30.3798C341.536 30.3798 339.225 30.9378 337.471 32.0536C335.718 33.1163 334.442 34.737 333.645 36.9156C332.848 39.0941 332.423 41.8572 332.37 45.2047V46.5597C332.37 50.0667 332.742 53.0423 333.486 55.4865C334.23 57.9308 335.478 59.7905 337.232 61.0658C339.039 62.341 341.483 62.9787 344.565 62.9787C347.168 62.9787 349.294 62.2613 350.941 60.8267C352.641 59.392 353.89 57.4525 354.687 55.0083C355.537 52.5109 355.962 49.6681 355.962 46.48C355.962 41.5915 355.006 37.686 353.093 34.7636C351.233 31.8411 348.337 30.3798 344.405 30.3798ZM391.529 68.797C387.756 68.797 384.382 68.0266 381.407 66.4856C378.484 64.9447 376.173 62.5536 374.472 59.3123C372.825 56.071 372.001 51.9264 372.001 46.8785C372.001 41.6181 372.878 37.3406 374.632 34.0462C376.385 30.7518 378.75 28.3341 381.725 26.7932C384.754 25.2522 388.181 24.4818 392.007 24.4818C394.186 24.4818 396.285 24.7209 398.304 25.1991C400.323 25.6242 401.97 26.1556 403.245 26.7932L401.093 32.6116C399.818 32.1333 398.33 31.6817 396.63 31.2566C394.93 30.8315 393.335 30.619 391.848 30.619C388.978 30.619 386.614 31.23 384.754 32.4521C382.894 33.6743 381.513 35.4809 380.609 37.872C379.706 40.2631 379.255 43.2387 379.255 46.7988C379.255 50.1995 379.706 53.0954 380.609 55.4865C381.513 57.8776 382.868 59.6842 384.674 60.9064C386.481 62.1285 388.739 62.7396 391.449 62.7396C393.787 62.7396 395.833 62.5004 397.586 62.0222C399.393 61.544 401.04 60.9595 402.528 60.2687V66.4856C401.093 67.2295 399.499 67.7875 397.746 68.1594C396.045 68.5845 393.973 68.797 391.529 68.797ZM449.83 46.5597C449.83 50.1198 449.351 53.2814 448.395 56.0444C447.492 58.7544 446.163 61.0658 444.41 62.9787C442.709 64.8916 440.611 66.3528 438.113 67.3624C435.669 68.3188 432.932 68.797 429.904 68.797C427.088 68.797 424.484 68.3188 422.093 67.3624C419.702 66.3528 417.629 64.8916 415.876 62.9787C414.122 61.0658 412.741 58.7544 411.731 56.0444C410.775 53.2814 410.297 50.1198 410.297 46.5597C410.297 41.8306 411.094 37.8454 412.688 34.6041C414.282 31.3097 416.567 28.8123 419.542 27.112C422.518 25.3585 426.051 24.4818 430.143 24.4818C434.022 24.4818 437.422 25.3585 440.345 27.112C443.321 28.8123 445.632 31.3097 447.279 34.6041C448.979 37.8454 449.83 41.8306 449.83 46.5597ZM417.55 46.5597C417.55 49.9073 417.975 52.8297 418.825 55.3271C419.728 57.7714 421.11 59.6577 422.969 60.9861C424.829 62.3145 427.194 62.9787 430.063 62.9787C432.932 62.9787 435.297 62.3145 437.157 60.9861C439.017 59.6577 440.371 57.7714 441.222 55.3271C442.125 52.8297 442.577 49.9073 442.577 46.5597C442.577 43.159 442.125 40.2631 441.222 37.872C440.318 35.4809 438.937 33.6477 437.077 32.3724C435.27 31.044 432.906 30.3798 429.983 30.3798C425.626 30.3798 422.465 31.8145 420.499 34.6839C418.533 37.5532 417.55 41.5118 417.55 46.5597ZM480.872 24.4818C481.669 24.4818 482.519 24.5349 483.422 24.6412C484.379 24.6943 485.202 24.8006 485.893 24.96L485.016 31.416C484.326 31.2566 483.555 31.1238 482.705 31.0175C481.908 30.9112 481.137 30.8581 480.394 30.8581C478.746 30.8581 477.179 31.2035 475.691 31.8942C474.203 32.585 472.875 33.568 471.706 34.8433C470.537 36.0654 469.607 37.5532 468.916 39.3067C468.279 41.0601 467.96 43.0262 467.96 45.2047V68H460.946V25.2788H466.684L467.482 33.0898H467.8C468.704 31.4957 469.793 30.061 471.068 28.7858C472.343 27.4574 473.805 26.4212 475.452 25.6773C477.099 24.8803 478.906 24.4818 480.872 24.4818ZM514.434 24.4818C519.535 24.4818 523.387 25.7305 525.991 28.2279C528.595 30.6721 529.896 34.6573 529.896 40.1834V68H522.962V40.6616C522.962 37.2078 522.192 34.6307 520.651 32.9304C519.11 31.23 516.692 30.3798 513.398 30.3798C508.669 30.3798 505.401 31.7082 503.594 34.365C501.788 37.0218 500.884 40.8476 500.884 45.8424V68H493.87V25.2788H499.529L500.565 31.0972H500.964C501.92 29.6094 503.089 28.3873 504.471 27.4308C505.906 26.4212 507.473 25.6773 509.173 25.1991C510.874 24.7209 512.627 24.4818 514.434 24.4818Z" fill="black"/>
<path d="M414.067 42.8975C417.075 42.8975 419.513 40.6749 419.513 37.9331C419.513 35.1914 417.075 32.9688 414.067 32.9688C411.06 32.9688 408.622 35.1914 408.622 37.9331C408.622 40.6749 411.06 42.8975 414.067 42.8975Z" fill="#F6EDD4"/>
<path d="M416.524 38.3588C419.532 38.3588 421.969 36.1362 421.969 33.3944C421.969 30.6527 419.532 28.4301 416.524 28.4301C413.517 28.4301 411.079 30.6527 411.079 33.3944C411.079 36.1362 413.517 38.3588 416.524 38.3588Z" fill="#F6EDD4"/>
<path d="M422.923 43.3231C425.931 43.3231 428.368 41.1005 428.368 38.3587C428.368 35.617 425.931 33.3944 422.923 33.3944C419.916 33.3944 417.478 35.617 417.478 38.3587C417.478 41.1005 419.916 43.3231 422.923 43.3231Z" fill="#F6EDD4"/>
<path d="M420.368 33.3936C423.375 33.3936 425.813 31.171 425.813 28.4293C425.813 25.6876 423.375 23.465 420.368 23.465C417.36 23.465 414.923 25.6876 414.923 28.4293C414.923 31.171 417.36 33.3936 420.368 33.3936Z" fill="#F6EDD4"/>
<path d="M431.324 43.3231C434.332 43.3231 436.77 41.1005 436.77 38.3587C436.77 35.617 434.332 33.3944 431.324 33.3944C428.317 33.3944 425.879 35.617 425.879 38.3587C425.879 41.1005 428.317 43.3231 431.324 43.3231Z" fill="#F6EDD4"/>
<path d="M435.069 32.4017C438.076 32.4017 440.514 30.1791 440.514 27.4374C440.514 24.6956 438.076 22.473 435.069 22.473C432.062 22.473 429.624 24.6956 429.624 27.4374C429.624 30.1791 432.062 32.4017 435.069 32.4017Z" fill="#F6EDD4"/>
<path d="M427.524 32.4017C430.531 32.4017 432.969 30.1791 432.969 27.4374C432.969 24.6956 430.531 22.473 427.524 22.473C424.516 22.473 422.078 24.6956 422.078 27.4374C422.078 30.1791 424.516 32.4017 427.524 32.4017Z" fill="#F6EDD4"/>
<path d="M429.624 37.366C432.631 37.366 435.069 35.1434 435.069 32.4016C435.069 29.6599 432.631 27.4373 429.624 27.4373C426.617 27.4373 424.179 29.6599 424.179 32.4016C424.179 35.1434 426.617 37.366 429.624 37.366Z" fill="#F6EDD4"/>
<path d="M424.179 38.3579C427.186 38.3579 429.624 36.1353 429.624 33.3935C429.624 30.6518 427.186 28.4292 424.179 28.4292C421.171 28.4292 418.734 30.6518 418.734 33.3935C418.734 36.1353 421.171 38.3579 424.179 38.3579Z" fill="#F6EDD4"/>
<path d="M440.125 40.9118C443.132 40.9118 445.57 38.6892 445.57 35.9475C445.57 33.2058 443.132 30.9832 440.125 30.9832C437.117 30.9832 434.679 33.2058 434.679 35.9475C434.679 38.6892 437.117 40.9118 440.125 40.9118Z" fill="#F6EDD4"/>
<path d="M446.115 43.6067C449.122 43.6067 451.56 41.3841 451.56 38.6424C451.56 35.9006 449.122 33.678 446.115 33.678C443.107 33.678 440.669 35.9006 440.669 38.6424C440.669 41.3841 443.107 43.6067 446.115 43.6067Z" fill="#F6EDD4"/>
<path d="M447.87 41.7629C450.877 41.7629 453.315 39.5403 453.315 36.7986C453.315 34.0568 450.877 31.8342 447.87 31.8342C444.863 31.8342 442.425 34.0568 442.425 36.7986C442.425 39.5403 444.863 41.7629 447.87 41.7629Z" fill="#F6EDD4"/>
<path d="M439.884 45.5924C442.891 45.5924 445.329 43.3697 445.329 40.628C445.329 37.8863 442.891 35.6637 439.884 35.6637C436.876 35.6637 434.439 37.8863 434.439 40.628C434.439 43.3697 436.876 45.5924 439.884 45.5924Z" fill="#F6EDD4"/>
<path d="M452.182 30.4141C452.182 30.6025 452.174 30.7907 452.148 30.979C452.131 31.1438 452.105 31.3086 452.071 31.4654C452.062 31.5205 452.053 31.5675 452.036 31.6224C452.002 31.7715 451.959 31.9207 451.907 32.0619C451.847 32.2344 451.778 32.407 451.701 32.5719C451.632 32.7368 451.546 32.8936 451.451 33.0505V33.0584H451.442C451.012 33.788 450.401 34.4158 449.669 34.8866C448.671 35.5534 447.449 35.9458 446.115 35.9458C445.934 35.9458 445.753 35.938 445.573 35.9145C444.85 35.8675 444.161 35.6948 443.542 35.4202C443.275 35.3104 443.025 35.1848 442.784 35.0357C442.707 34.9965 442.629 34.9495 442.56 34.8867C442.319 34.7376 442.096 34.565 441.889 34.3844C440.891 33.4978 440.228 32.313 440.082 30.9869C440.056 30.7986 440.047 30.6103 440.047 30.4141C440.047 30.3121 440.047 30.2101 440.065 30.1081C440.228 27.197 442.879 24.8824 446.115 24.8824H446.158L447.733 25.0864C448.792 25.3453 449.73 25.8711 450.461 26.5693C450.513 26.6164 450.565 26.6557 450.607 26.7027C450.651 26.7419 450.685 26.7733 450.711 26.8126C450.728 26.8282 450.745 26.8518 450.762 26.8675C450.909 27.0166 451.029 27.1657 451.141 27.3225C451.227 27.4325 451.305 27.5422 451.374 27.66C451.408 27.7149 451.442 27.7698 451.477 27.8249C451.649 28.123 451.795 28.4368 451.907 28.7665C451.924 28.8214 451.942 28.8762 451.95 28.9312C451.95 28.9312 451.959 28.9312 451.959 28.9391C452.002 29.0647 452.036 29.1902 452.062 29.3235C452.139 29.6764 452.182 30.0375 452.182 30.4141Z" fill="#F6EDD4"/>
<path d="M446.192 25.4551C446.192 28.0759 444.187 30.2728 441.502 30.8377C441.063 30.9398 440.598 30.9868 440.125 30.9868H440.082C439.703 30.9868 439.333 30.9477 438.98 30.8848C438.119 30.7358 437.328 30.4219 436.648 29.9826C435.942 29.5353 435.348 28.9546 434.918 28.2798C434.814 28.1385 434.728 27.9894 434.651 27.8326C434.272 27.1106 434.057 26.3024 434.057 25.4551C434.057 24.3566 434.41 23.3364 435.021 22.4734C435.546 21.7123 436.286 21.0766 437.155 20.6373C438.033 20.1823 439.04 19.9233 440.125 19.9233C442.595 19.9233 444.721 21.265 445.659 23.1953L446.158 24.8824C446.184 25.0706 446.192 25.2589 446.192 25.4551Z" fill="#F6EDD4"/>
<path d="M414.067 37.1523C417.418 37.1523 420.135 34.6757 420.135 31.6207C420.135 28.5656 417.418 26.0891 414.067 26.0891C410.716 26.0891 408 28.5656 408 31.6207C408 34.6757 410.716 37.1523 414.067 37.1523Z" fill="#F6EDD4"/>
<path d="M417.478 33.5364C420.829 33.5364 423.546 31.0598 423.546 28.0048C423.546 24.9497 420.829 22.4731 417.478 22.4731C414.127 22.4731 411.411 24.9497 411.411 28.0048C411.411 31.0598 414.127 33.5364 417.478 33.5364Z" fill="#F6EDD4"/>
<path d="M423.546 29.7872C426.897 29.7872 429.613 27.3106 429.613 24.2556C429.613 21.2005 426.897 18.7239 423.546 18.7239C420.195 18.7239 417.478 21.2005 417.478 24.2556C417.478 27.3106 420.195 29.7872 423.546 29.7872Z" fill="#F6EDD4"/>
<path d="M431.947 28.9966C435.298 28.9966 438.014 26.52 438.014 23.465C438.014 20.4099 435.298 17.9333 431.947 17.9333C428.596 17.9333 425.879 20.4099 425.879 23.465C425.879 26.52 428.596 28.9966 431.947 28.9966Z" fill="#F6EDD4"/>
<path d="M438.146 39.7159C441.154 39.7159 443.592 37.4933 443.592 34.7516C443.592 32.0098 441.154 29.7872 438.146 29.7872C435.139 29.7872 432.701 32.0098 432.701 34.7516C432.701 37.4933 435.139 39.7159 438.146 39.7159Z" fill="#F6EDD4"/>
<path d="M417.756 66.9474H412.592L411.844 61.7766L410.174 50.1481L408.625 39.4296H414.925L415.269 42.7723L415.527 45.2676L416.767 57.2884L417.67 66.0922L417.756 66.9474Z" fill="#D14846"/>
<path d="M422.923 66.9471H417.756L414.923 39.4321H421.223L422.923 66.9471Z" fill="white"/>
<path d="M428.09 66.9471H422.923L421.223 39.4321H427.524L428.09 66.9471Z" fill="#D14846"/>
<path d="M433.257 66.9471H428.09L427.524 39.4321H433.824L433.257 66.9471Z" fill="white"/>
<path d="M438.425 66.9471H433.258L433.824 39.4321H440.125L438.425 66.9471Z" fill="#D14846"/>
<path d="M443.592 66.9471H438.425L440.125 39.4321H446.425L443.592 66.9471Z" fill="white"/>
<path d="M448.759 66.9471H443.592L446.425 39.4321H452.726L448.759 66.9471Z" fill="#D14846"/>
<path d="M448.766 66.2099H412.593V69.3407H448.766V66.2099Z" fill="#F2F2F2"/>
<path opacity="0.3" d="M435.434 25.3331C435.434 24.7217 434.885 24.2216 434.214 24.2216C433.85 24.2216 433.526 24.3719 433.302 24.6043C433.106 24.229 432.689 23.9662 432.204 23.9662C431.871 23.9662 431.568 24.0901 431.348 24.2895C431.127 24.0901 430.824 23.9662 430.491 23.9662C429.821 23.9662 429.272 24.4665 429.272 25.0777C429.272 25.6119 429.691 26.0609 430.244 26.1659C430.218 26.2556 430.2 26.3479 430.2 26.4445C430.2 27.0559 430.749 27.556 431.419 27.556C431.747 27.556 432.045 27.4351 432.264 27.2414C432.383 27.2767 432.507 27.3008 432.638 27.3008C432.645 27.3008 432.652 27.299 432.659 27.2989C432.881 27.5776 433.239 27.7615 433.643 27.7615C434.314 27.7615 434.862 27.2613 434.862 26.65C434.862 26.5284 434.835 26.4132 434.795 26.3035C435.173 26.114 435.434 25.7519 435.434 25.3331Z" fill="#E4AC23"/>
<path opacity="0.3" d="M441.529 34.3559C441.833 34.9318 442.598 35.1767 443.23 34.9001C443.572 34.75 443.803 34.4747 443.899 34.1632C444.27 34.4358 444.794 34.5112 445.25 34.3115C445.564 34.174 445.788 33.9324 445.896 33.6536C446.203 33.7503 446.55 33.7422 446.864 33.6047C447.496 33.3281 447.764 32.6306 447.461 32.0547C447.196 31.5515 446.578 31.3012 446.005 31.4305C445.985 31.3354 445.956 31.241 445.908 31.1498C445.605 30.5739 444.84 30.329 444.208 30.6056C443.899 30.7409 443.679 30.9775 443.568 31.2507C443.439 31.2664 443.31 31.2949 443.186 31.349C443.18 31.352 443.174 31.3564 443.168 31.3594C442.82 31.1885 442.392 31.1628 442.011 31.3297C441.379 31.6063 441.11 32.3038 441.414 32.8797C441.474 32.9943 441.557 33.0916 441.649 33.1785C441.387 33.5127 441.322 33.9613 441.529 34.3559Z" fill="#E4AC23"/>
<path opacity="0.3" d="M416.207 31.5953C415.833 32.1945 416.065 32.9634 416.722 33.304C417.079 33.4889 417.489 33.5062 417.85 33.3921C417.813 33.8597 418.062 34.3291 418.536 34.5751C418.863 34.7444 419.236 34.7768 419.574 34.6934C419.668 35.0009 419.889 35.2761 420.216 35.4454C420.873 35.7859 421.717 35.5744 422.09 34.9752C422.417 34.4516 422.28 33.7987 421.802 33.415C421.883 33.3403 421.957 33.2589 422.016 33.1641C422.389 32.5649 422.157 31.796 421.5 31.4554C421.179 31.2888 420.813 31.2562 420.479 31.3345C420.385 31.2396 420.278 31.1529 420.149 31.0864C420.142 31.0828 420.135 31.0811 420.128 31.0777C420.08 30.6918 419.842 30.3299 419.446 30.1245C418.788 29.7839 417.945 29.9955 417.571 30.5946C417.497 30.7138 417.453 30.8404 417.425 30.9683C416.939 30.9622 416.463 31.1849 416.207 31.5953Z" fill="#E4AC23"/>
<path opacity="0.06" d="M412.592 66.9476V67.4497V68.4776H413.72H448.766V66.924L452.725 39.4298H452.484C452.621 39.2336 452.742 39.0217 452.854 38.802C452.888 38.7235 452.923 38.6451 452.957 38.5667C453.052 38.3392 453.138 38.1037 453.189 37.8526C453.215 37.7663 453.232 37.68 453.241 37.5937C453.258 37.5544 453.267 37.5073 453.267 37.4682C453.267 37.4525 453.276 37.4289 453.276 37.4132C453.284 37.3427 453.293 37.272 453.301 37.2092C453.301 37.2014 453.301 37.1856 453.301 37.1778C453.31 37.0523 453.318 36.9267 453.318 36.8012C453.318 36.6599 453.31 36.5266 453.301 36.3853C453.293 36.3382 453.293 36.2911 453.284 36.244C453.276 36.1342 453.258 36.0243 453.224 35.9145C453.224 35.8674 453.207 35.8281 453.198 35.7812C453.172 35.6635 453.146 35.5457 453.095 35.428C453.095 35.4202 453.095 35.4124 453.095 35.4045C453.086 35.381 453.086 35.3496 453.069 35.326C453.069 35.3104 453.06 35.3025 453.052 35.2868C453.026 35.1926 452.992 35.1063 452.949 35.02C452.923 34.9494 452.897 34.8787 452.854 34.8081C452.854 34.8003 452.854 34.8003 452.845 34.7925C452.811 34.7061 452.768 34.6199 452.716 34.5414C452.647 34.4159 452.579 34.2981 452.492 34.1804C452.424 34.0784 452.355 33.9764 452.269 33.8822C452.243 33.8429 452.208 33.8037 452.174 33.7645C452.096 33.6625 452.01 33.5683 451.907 33.4821C451.881 33.4428 451.847 33.4115 451.812 33.3801L451.804 33.3722C451.718 33.2859 451.64 33.2153 451.545 33.1447C451.52 33.1133 451.485 33.082 451.451 33.0584V33.0505C451.545 32.8936 451.631 32.7367 451.7 32.5719C451.778 32.4071 451.847 32.2346 451.907 32.0619C451.958 31.9206 452.002 31.7715 452.036 31.6225C452.053 31.5676 452.062 31.5205 452.07 31.4655C452.105 31.3086 452.131 31.1439 452.148 30.9791C452.174 30.7907 452.182 30.6025 452.182 30.4141C452.182 30.0375 452.139 29.6765 452.062 29.3234C452.036 29.1901 452.002 29.0645 451.958 28.939C451.958 28.9311 451.95 28.9311 451.95 28.9311C451.941 28.8762 451.924 28.8213 451.907 28.7664C451.795 28.4368 451.649 28.123 451.477 27.8248C451.442 27.7698 451.408 27.7149 451.373 27.66C451.304 27.5423 451.227 27.4325 451.141 27.3226C451.029 27.1657 450.908 27.0166 450.762 26.8675C450.745 26.8518 450.728 26.8282 450.711 26.8126C450.642 26.7262 450.556 26.6478 450.47 26.5615L450.461 26.5693L449.91 27.0715L443.998 32.4621L443.283 33.1133L441.889 34.3844L440.46 35.687L436.699 39.1159L436.355 39.4298L436.303 39.4769L434.462 41.156L433.773 41.7838L432.155 43.2589L427.688 47.3313L422.034 52.4865L416.767 57.2885L411.844 61.7767L412.592 66.9476Z" fill="#040000"/>
<path fill-rule="evenodd" clip-rule="evenodd" d="M5.67122 71.2991C5.67122 73.909 7.78715 76.025 10.3972 76.025H18.9041V59.0116H5.67122V71.2991ZM5.67122 53.3402H18.9041V36.3265H5.67122V53.3402ZM5.67122 30.6553H18.9041V13.6416H10.3972C7.78715 13.6416 5.67122 15.7576 5.67122 18.3676V30.6553ZM24.5753 13.6416V76.025H49.1505V13.6416H24.5753ZM54.8219 13.6416V30.6553H68.0546V18.3676C68.0546 15.7576 65.9386 13.6416 63.3287 13.6416H54.8219ZM68.0546 36.3265H54.8219V53.3402H68.0546V36.3265ZM68.0546 59.0116H54.8219V76.025H63.3287C65.9386 76.025 68.0546 73.909 68.0546 71.2991V59.0116ZM10.3972 81.6963C4.65502 81.6963 0 77.0413 0 71.2991V18.3676C0 12.6254 4.65502 7.9704 10.3972 7.9704H63.3287C69.0709 7.9704 73.7259 12.6254 73.7259 18.3676V71.2991C73.7259 77.0413 69.0709 81.6963 63.3287 81.6963H10.3972Z" fill="black"/>
</svg>
