<svg width="538" height="88" viewBox="0 0 538 88" fill="none" xmlns="http://www.w3.org/2000/svg">
<path d="M132.149 25.2788V68H126.41L125.374 62.341H125.055C124.152 63.8288 122.983 65.051 121.548 66.0074C120.113 66.9639 118.546 67.6546 116.846 68.0797C115.145 68.5579 113.365 68.797 111.505 68.797C108.105 68.797 105.235 68.2657 102.897 67.203C100.613 66.0871 98.8857 64.3868 97.7167 62.1019C96.5477 59.8171 95.9632 56.868 95.9632 53.2548V25.2788H103.057V52.7766C103.057 56.1773 103.827 58.7278 105.368 60.4281C106.909 62.1285 109.3 62.9787 112.542 62.9787C115.73 62.9787 118.227 62.3942 120.034 61.2252C121.894 60.0031 123.195 58.2496 123.939 55.9647C124.736 53.6268 125.135 50.8106 125.135 47.5161V25.2788H132.149ZM173.528 56.2039C173.528 58.9669 172.837 61.2783 171.456 63.1381C170.074 64.9978 168.108 66.4059 165.558 67.3624C163.007 68.3188 159.978 68.797 156.471 68.797C153.496 68.797 150.919 68.5579 148.74 68.0797C146.615 67.6015 144.728 66.9373 143.081 66.0871V59.7108C144.782 60.561 146.827 61.358 149.218 62.1019C151.663 62.7927 154.133 63.1381 156.631 63.1381C160.191 63.1381 162.768 62.5801 164.362 61.4643C165.956 60.2953 166.753 58.7544 166.753 56.8415C166.753 55.7788 166.461 54.8223 165.876 53.9721C165.292 53.122 164.229 52.2718 162.688 51.4216C161.201 50.5715 159.049 49.615 156.232 48.5523C153.469 47.4896 151.105 46.4269 149.139 45.3641C147.173 44.3014 145.658 43.0262 144.596 41.5384C143.533 40.0506 143.002 38.1377 143.002 35.7997C143.002 32.1865 144.463 29.3968 147.385 27.4308C150.361 25.4648 154.24 24.4818 159.022 24.4818C161.626 24.4818 164.043 24.7475 166.275 25.2788C168.56 25.757 170.685 26.4478 172.651 27.3511L170.26 32.9304C169.091 32.399 167.843 31.9474 166.514 31.5754C165.239 31.1503 163.937 30.8315 162.609 30.619C161.28 30.3533 159.925 30.2204 158.544 30.2204C155.674 30.2204 153.469 30.6987 151.928 31.6551C150.441 32.5584 149.697 33.8071 149.697 35.4012C149.697 36.5702 150.042 37.5798 150.733 38.4299C151.424 39.227 152.566 40.024 154.16 40.821C155.807 41.5649 157.986 42.4682 160.696 43.531C163.406 44.5405 165.717 45.5767 167.63 46.6394C169.543 47.7021 171.004 49.0039 172.014 50.5449C173.023 52.0327 173.528 53.919 173.528 56.2039ZM200.35 24.4818C204.016 24.4818 207.151 25.2788 209.755 26.8729C212.411 28.467 214.431 30.7252 215.812 33.6477C217.247 36.517 217.964 39.8912 217.964 43.7701V47.9944H188.713C188.819 52.8297 190.041 56.5227 192.379 59.0732C194.77 61.5706 198.091 62.8193 202.342 62.8193C205.052 62.8193 207.443 62.5801 209.516 62.1019C211.641 61.5706 213.82 60.8267 216.051 59.8702V66.0074C213.873 66.9639 211.721 67.6546 209.595 68.0797C207.47 68.5579 204.946 68.797 202.023 68.797C197.985 68.797 194.398 67.9734 191.263 66.3262C188.181 64.679 185.764 62.2348 184.01 58.9935C182.31 55.6991 181.46 51.6873 181.46 46.9582C181.46 42.2823 182.23 38.2705 183.771 34.923C185.365 31.5754 187.57 28.9983 190.387 27.1917C193.256 25.3851 196.577 24.4818 200.35 24.4818ZM200.27 30.2204C196.922 30.2204 194.266 31.3097 192.3 33.4883C190.387 35.6137 189.244 38.5893 188.872 42.4151H210.631C210.631 39.9709 210.259 37.8454 209.516 36.0388C208.772 34.2322 207.629 32.8241 206.088 31.8145C204.6 30.7518 202.661 30.2204 200.27 30.2204ZM244.86 11.0916C252.299 11.0916 257.719 12.5528 261.12 15.4753C264.521 18.3977 266.221 22.5158 266.221 27.8293C266.221 30.1673 265.822 32.4256 265.025 34.6041C264.281 36.7296 263.033 38.6425 261.279 40.3428C259.526 42.0432 257.188 43.3981 254.265 44.4077C251.343 45.3641 247.756 45.8424 243.505 45.8424H236.97V68H229.796V11.0916H244.86ZM244.223 17.2287H236.97V39.7052H242.708C246.322 39.7052 249.324 39.3332 251.715 38.5893C254.106 37.7923 255.886 36.5436 257.055 34.8433C258.224 33.1429 258.809 30.9112 258.809 28.1481C258.809 24.4818 257.64 21.7453 255.302 19.9387C252.964 18.132 249.271 17.2287 244.223 17.2287ZM314.24 46.5597C314.24 50.1198 313.762 53.2814 312.805 56.0444C311.902 58.7544 310.574 61.0658 308.82 62.9787C307.12 64.8916 305.021 66.3528 302.523 67.3624C300.079 68.3188 297.343 68.797 294.314 68.797C291.498 68.797 288.894 68.3188 286.503 67.3624C284.112 66.3528 282.04 64.8916 280.286 62.9787C278.533 61.0658 277.151 58.7544 276.142 56.0444C275.185 53.2814 274.707 50.1198 274.707 46.5597C274.707 41.8306 275.504 37.8454 277.098 34.6041C278.692 31.3097 280.977 28.8123 283.953 27.112C286.928 25.3585 290.462 24.4818 294.553 24.4818C298.432 24.4818 301.833 25.3585 304.755 27.112C307.731 28.8123 310.042 31.3097 311.689 34.6041C313.39 37.8454 314.24 41.8306 314.24 46.5597ZM281.96 46.5597C281.96 49.9073 282.385 52.8297 283.235 55.3271C284.139 57.7714 285.52 59.6577 287.38 60.9861C289.24 62.3145 291.604 62.9787 294.473 62.9787C297.343 62.9787 299.707 62.3145 301.567 60.9861C303.427 59.6577 304.782 57.7714 305.632 55.3271C306.535 52.8297 306.987 49.9073 306.987 46.5597C306.987 43.159 306.535 40.2631 305.632 37.872C304.729 35.4809 303.347 33.6477 301.487 32.3724C299.681 31.044 297.316 30.3798 294.394 30.3798C290.037 30.3798 286.875 31.8145 284.909 34.6839C282.943 37.5532 281.96 41.5118 281.96 46.5597ZM345.681 24.4818C350.941 24.4818 355.165 26.315 358.353 29.9813C361.595 33.6477 363.215 39.1738 363.215 46.5597C363.215 51.3951 362.471 55.4865 360.984 58.8341C359.549 62.1285 357.503 64.6259 354.846 66.3262C352.243 67.9734 349.161 68.797 345.601 68.797C343.422 68.797 341.483 68.5048 339.782 67.9203C338.082 67.3358 336.621 66.5919 335.399 65.6886C334.23 64.7321 333.22 63.696 332.37 62.5801H331.892C331.998 63.4835 332.104 64.6259 332.211 66.0074C332.317 67.3889 332.37 68.5845 332.37 69.5941V87.1289H325.356V25.2788H331.095L332.051 31.0972H332.37C333.22 29.8751 334.23 28.7592 335.399 27.7496C336.621 26.74 338.056 25.943 339.703 25.3585C341.403 24.774 343.396 24.4818 345.681 24.4818ZM344.405 30.3798C341.536 30.3798 339.225 30.9378 337.471 32.0536C335.718 33.1163 334.442 34.737 333.645 36.9156C332.848 39.0941 332.423 41.8572 332.37 45.2047V46.5597C332.37 50.0667 332.742 53.0423 333.486 55.4865C334.23 57.9308 335.478 59.7905 337.232 61.0658C339.039 62.341 341.483 62.9787 344.565 62.9787C347.168 62.9787 349.294 62.2613 350.941 60.8267C352.641 59.392 353.89 57.4525 354.687 55.0083C355.537 52.5109 355.962 49.6681 355.962 46.48C355.962 41.5915 355.006 37.686 353.093 34.7636C351.233 31.8411 348.337 30.3798 344.405 30.3798ZM391.529 68.797C387.756 68.797 384.382 68.0266 381.407 66.4856C378.484 64.9447 376.173 62.5536 374.472 59.3123C372.825 56.071 372.001 51.9264 372.001 46.8785C372.001 41.6181 372.878 37.3406 374.632 34.0462C376.385 30.7518 378.75 28.3341 381.725 26.7932C384.754 25.2522 388.181 24.4818 392.007 24.4818C394.186 24.4818 396.285 24.7209 398.304 25.1991C400.323 25.6242 401.97 26.1556 403.245 26.7932L401.093 32.6116C399.818 32.1333 398.33 31.6817 396.63 31.2566C394.93 30.8315 393.335 30.619 391.848 30.619C388.978 30.619 386.614 31.23 384.754 32.4521C382.894 33.6743 381.513 35.4809 380.609 37.872C379.706 40.2631 379.255 43.2387 379.255 46.7988C379.255 50.1995 379.706 53.0954 380.609 55.4865C381.513 57.8776 382.868 59.6842 384.674 60.9064C386.481 62.1285 388.739 62.7396 391.449 62.7396C393.787 62.7396 395.833 62.5004 397.586 62.0222C399.393 61.544 401.04 60.9595 402.528 60.2687V66.4856C401.093 67.2295 399.499 67.7875 397.746 68.1594C396.045 68.5845 393.973 68.797 391.529 68.797ZM449.83 46.5597C449.83 50.1198 449.351 53.2814 448.395 56.0444C447.492 58.7544 446.163 61.0658 444.41 62.9787C442.709 64.8916 440.611 66.3528 438.113 67.3624C435.669 68.3188 432.932 68.797 429.904 68.797C427.088 68.797 424.484 68.3188 422.093 67.3624C419.702 66.3528 417.629 64.8916 415.876 62.9787C414.122 61.0658 412.741 58.7544 411.731 56.0444C410.775 53.2814 410.297 50.1198 410.297 46.5597C410.297 41.8306 411.094 37.8454 412.688 34.6041C414.282 31.3097 416.567 28.8123 419.542 27.112C422.518 25.3585 426.051 24.4818 430.143 24.4818C434.022 24.4818 437.422 25.3585 440.345 27.112C443.321 28.8123 445.632 31.3097 447.279 34.6041C448.979 37.8454 449.83 41.8306 449.83 46.5597ZM417.55 46.5597C417.55 49.9073 417.975 52.8297 418.825 55.3271C419.728 57.7714 421.11 59.6577 422.969 60.9861C424.829 62.3145 427.194 62.9787 430.063 62.9787C432.932 62.9787 435.297 62.3145 437.157 60.9861C439.017 59.6577 440.371 57.7714 441.222 55.3271C442.125 52.8297 442.577 49.9073 442.577 46.5597C442.577 43.159 442.125 40.2631 441.222 37.872C440.318 35.4809 438.937 33.6477 437.077 32.3724C435.27 31.044 432.906 30.3798 429.983 30.3798C425.626 30.3798 422.465 31.8145 420.499 34.6839C418.533 37.5532 417.55 41.5118 417.55 46.5597ZM480.872 24.4818C481.669 24.4818 482.519 24.5349 483.422 24.6412C484.379 24.6943 485.202 24.8006 485.893 24.96L485.016 31.416C484.326 31.2566 483.555 31.1238 482.705 31.0175C481.908 30.9112 481.137 30.8581 480.394 30.8581C478.746 30.8581 477.179 31.2035 475.691 31.8942C474.203 32.585 472.875 33.568 471.706 34.8433C470.537 36.0654 469.607 37.5532 468.916 39.3067C468.279 41.0601 467.96 43.0262 467.96 45.2047V68H460.946V25.2788H466.684L467.482 33.0898H467.8C468.704 31.4957 469.793 30.061 471.068 28.7858C472.343 27.4574 473.805 26.4212 475.452 25.6773C477.099 24.8803 478.906 24.4818 480.872 24.4818ZM514.434 24.4818C519.535 24.4818 523.387 25.7305 525.991 28.2279C528.595 30.6721 529.896 34.6573 529.896 40.1834V68H522.962V40.6616C522.962 37.2078 522.192 34.6307 520.651 32.9304C519.11 31.23 516.692 30.3798 513.398 30.3798C508.669 30.3798 505.401 31.7082 503.594 34.365C501.788 37.0218 500.884 40.8476 500.884 45.8424V68H493.87V25.2788H499.529L500.565 31.0972H500.964C501.92 29.6094 503.089 28.3873 504.471 27.4308C505.906 26.4212 507.473 25.6773 509.173 25.1991C510.874 24.7209 512.627 24.4818 514.434 24.4818Z" fill="white"/>
<rect x="406.489" y="11.9556" width="51.8074" height="73.7259" fill="#242424"/>
<path d="M417.802 42.0124C420.447 42.0124 422.59 39.8686 422.59 37.224C422.59 34.5795 420.447 32.4357 417.802 32.4357C415.158 32.4357 413.014 34.5795 413.014 37.224C413.014 39.8686 415.158 42.0124 417.802 42.0124Z" fill="#F6EDD4"/>
<path d="M419.963 37.6345C422.607 37.6345 424.751 35.4907 424.751 32.8462C424.751 30.2017 422.607 28.0579 419.963 28.0579C417.318 28.0579 415.174 30.2017 415.174 32.8462C415.174 35.4907 417.318 37.6345 419.963 37.6345Z" fill="#F6EDD4"/>
<path d="M425.59 42.4228C428.234 42.4228 430.378 40.279 430.378 37.6345C430.378 34.99 428.234 32.8462 425.59 32.8462C422.945 32.8462 420.802 34.99 420.802 37.6345C420.802 40.279 422.945 42.4228 425.59 42.4228Z" fill="#F6EDD4"/>
<path d="M423.343 32.8455C425.987 32.8455 428.131 30.7017 428.131 28.0572C428.131 25.4127 425.987 23.2689 423.343 23.2689C420.698 23.2689 418.554 25.4127 418.554 28.0572C418.554 30.7017 420.698 32.8455 423.343 32.8455Z" fill="#F6EDD4"/>
<path d="M432.978 42.4228C435.622 42.4228 437.766 40.279 437.766 37.6345C437.766 34.99 435.622 32.8462 432.978 32.8462C430.333 32.8462 428.189 34.99 428.189 37.6345C428.189 40.279 430.333 42.4228 432.978 42.4228Z" fill="#F6EDD4"/>
<path d="M436.27 31.8887C438.915 31.8887 441.059 29.7449 441.059 27.1004C441.059 24.4559 438.915 22.3121 436.27 22.3121C433.626 22.3121 431.482 24.4559 431.482 27.1004C431.482 29.7449 433.626 31.8887 436.27 31.8887Z" fill="#F6EDD4"/>
<path d="M429.635 31.8887C432.28 31.8887 434.424 29.7449 434.424 27.1004C434.424 24.4559 432.28 22.3121 429.635 22.3121C426.991 22.3121 424.847 24.4559 424.847 27.1004C424.847 29.7449 426.991 31.8887 429.635 31.8887Z" fill="#F6EDD4"/>
<path d="M431.482 36.677C434.127 36.677 436.27 34.5332 436.27 31.8887C436.27 29.2441 434.127 27.1003 431.482 27.1003C428.838 27.1003 426.694 29.2441 426.694 31.8887C426.694 34.5332 428.838 36.677 431.482 36.677Z" fill="#F6EDD4"/>
<path d="M426.694 37.6337C429.338 37.6337 431.482 35.4899 431.482 32.8454C431.482 30.2009 429.338 28.0571 426.694 28.0571C424.049 28.0571 421.905 30.2009 421.905 32.8454C421.905 35.4899 424.049 37.6337 426.694 37.6337Z" fill="#F6EDD4"/>
<path d="M440.716 40.0971C443.361 40.0971 445.504 37.9533 445.504 35.3088C445.504 32.6642 443.361 30.5204 440.716 30.5204C438.072 30.5204 435.928 32.6642 435.928 35.3088C435.928 37.9533 438.072 40.0971 440.716 40.0971Z" fill="#F6EDD4"/>
<path d="M445.984 42.6964C448.628 42.6964 450.772 40.5526 450.772 37.9081C450.772 35.2636 448.628 33.1198 445.984 33.1198C443.339 33.1198 441.195 35.2636 441.195 37.9081C441.195 40.5526 443.339 42.6964 445.984 42.6964Z" fill="#F6EDD4"/>
<path d="M447.527 40.918C450.172 40.918 452.316 38.7742 452.316 36.1297C452.316 33.4852 450.172 31.3414 447.527 31.3414C444.883 31.3414 442.739 33.4852 442.739 36.1297C442.739 38.7742 444.883 40.918 447.527 40.918Z" fill="#F6EDD4"/>
<path d="M440.504 44.6117C443.149 44.6117 445.293 42.4679 445.293 39.8233C445.293 37.1788 443.149 35.035 440.504 35.035C437.86 35.035 435.716 37.1788 435.716 39.8233C435.716 42.4679 437.86 44.6117 440.504 44.6117Z" fill="#F6EDD4"/>
<path d="M451.319 29.9716C451.319 30.1533 451.312 30.3348 451.289 30.5164C451.274 30.6754 451.251 30.8344 451.221 30.9856C451.214 31.0387 451.206 31.084 451.191 31.137C451.161 31.2808 451.123 31.4247 451.077 31.5609C451.024 31.7274 450.964 31.8938 450.896 32.0529C450.835 32.2119 450.759 32.3632 450.676 32.5145V32.5221H450.669C450.29 33.2259 449.753 33.8314 449.11 34.2855C448.232 34.9287 447.157 35.3072 445.984 35.3072C445.825 35.3072 445.666 35.2996 445.507 35.2769C444.871 35.2316 444.266 35.065 443.721 34.8002C443.486 34.6942 443.267 34.5731 443.055 34.4293C442.987 34.3915 442.919 34.3462 442.858 34.2856C442.646 34.1418 442.449 33.9752 442.268 33.8011C441.39 32.946 440.807 31.8031 440.678 30.5241C440.656 30.3424 440.648 30.1608 440.648 29.9716C440.648 29.8732 440.648 29.7748 440.663 29.6764C440.807 26.8686 443.138 24.636 445.984 24.636H446.022L447.407 24.8328C448.338 25.0824 449.163 25.5896 449.806 26.2631C449.851 26.3085 449.897 26.3465 449.935 26.3918C449.972 26.4296 450.003 26.4599 450.025 26.4977C450.04 26.5128 450.056 26.5356 450.071 26.5507C450.2 26.6945 450.305 26.8383 450.404 26.9896C450.48 27.0957 450.548 27.2015 450.608 27.3151C450.639 27.3681 450.669 27.4211 450.699 27.4741C450.85 27.7617 450.979 28.0644 451.077 28.3823C451.093 28.4353 451.108 28.4882 451.115 28.5413C451.115 28.5413 451.123 28.5413 451.123 28.5488C451.161 28.67 451.191 28.791 451.214 28.9196C451.282 29.26 451.319 29.6083 451.319 29.9716Z" fill="#F6EDD4"/>
<path d="M446.052 25.1884C446.052 27.7163 444.288 29.8353 441.927 30.3802C441.541 30.4787 441.132 30.524 440.716 30.524H440.678C440.345 30.524 440.02 30.4862 439.71 30.4256C438.953 30.2819 438.257 29.9791 437.659 29.5553C437.038 29.1239 436.516 28.5638 436.137 27.9129C436.046 27.7767 435.971 27.6329 435.903 27.4816C435.57 26.7852 435.38 26.0057 435.38 25.1884C435.38 24.1288 435.691 23.1449 436.228 22.3124C436.69 21.5783 437.341 20.9652 438.105 20.5414C438.877 20.1026 439.763 19.8527 440.716 19.8527C442.888 19.8527 444.758 21.1469 445.583 23.0087L446.022 24.636C446.044 24.8176 446.052 24.9992 446.052 25.1884Z" fill="#F6EDD4"/>
<path d="M417.802 36.4708C420.749 36.4708 423.138 34.0821 423.138 31.1354C423.138 28.1886 420.749 25.7999 417.802 25.7999C414.855 25.7999 412.467 28.1886 412.467 31.1354C412.467 34.0821 414.855 36.4708 417.802 36.4708Z" fill="#F6EDD4"/>
<path d="M420.801 32.9832C423.748 32.9832 426.137 30.5944 426.137 27.6477C426.137 24.701 423.748 22.3122 420.801 22.3122C417.855 22.3122 415.466 24.701 415.466 27.6477C415.466 30.5944 417.855 32.9832 420.801 32.9832Z" fill="#F6EDD4"/>
<path d="M426.137 29.3669C429.084 29.3669 431.473 26.9781 431.473 24.0314C431.473 21.0847 429.084 18.6959 426.137 18.6959C423.19 18.6959 420.802 21.0847 420.802 24.0314C420.802 26.9781 423.19 29.3669 426.137 29.3669Z" fill="#F6EDD4"/>
<path d="M433.525 28.6043C436.471 28.6043 438.86 26.2155 438.86 23.2688C438.86 20.3221 436.471 17.9333 433.525 17.9333C430.578 17.9333 428.189 20.3221 428.189 23.2688C428.189 26.2155 430.578 28.6043 433.525 28.6043Z" fill="#F6EDD4"/>
<path d="M438.977 38.9436C441.621 38.9436 443.765 36.7998 443.765 34.1553C443.765 31.5107 441.621 29.3669 438.977 29.3669C436.332 29.3669 434.188 31.5107 434.188 34.1553C434.188 36.7998 436.332 38.9436 438.977 38.9436Z" fill="#F6EDD4"/>
<path d="M421.046 65.2096H416.505L415.847 60.222L414.378 49.0058L413.016 38.6674H418.556L418.859 41.8916L419.086 44.2984L420.176 55.893L420.97 64.3846L421.046 65.2096Z" fill="#D14846"/>
<path d="M425.59 65.2093H421.046L418.554 38.6699H424.095L425.59 65.2093Z" fill="white"/>
<path d="M430.134 65.2093H425.59L424.095 38.6699H429.635L430.134 65.2093Z" fill="#D14846"/>
<path d="M434.677 65.2093H430.134L429.635 38.6699H435.176L434.677 65.2093Z" fill="white"/>
<path d="M439.221 65.2093H434.677L435.176 38.6699H440.716L439.221 65.2093Z" fill="#D14846"/>
<path d="M443.765 65.2093H439.221L440.716 38.6699H446.257L443.765 65.2093Z" fill="white"/>
<path d="M448.309 65.2093H443.765L446.257 38.6699H451.797L448.309 65.2093Z" fill="#D14846"/>
<path d="M448.315 64.4982H416.505V67.518H448.315V64.4982Z" fill="#F2F2F2"/>
<path opacity="0.3" d="M436.591 25.0707C436.591 24.481 436.109 23.9986 435.519 23.9986C435.199 23.9986 434.914 24.1436 434.717 24.3678C434.544 24.0058 434.177 23.7523 433.751 23.7523C433.458 23.7523 433.192 23.8718 432.998 24.0641C432.804 23.8718 432.538 23.7523 432.245 23.7523C431.655 23.7523 431.173 24.2348 431.173 24.8244C431.173 25.3396 431.541 25.7727 432.027 25.874C432.005 25.9605 431.989 26.0495 431.989 26.1427C431.989 26.7324 432.471 27.2148 433.061 27.2148C433.349 27.2148 433.611 27.0982 433.804 26.9113C433.908 26.9454 434.018 26.9686 434.133 26.9686C434.139 26.9686 434.145 26.9669 434.151 26.9668C434.346 27.2356 434.661 27.413 435.017 27.413C435.606 27.413 436.089 26.9306 436.089 26.3409C436.089 26.2236 436.065 26.1125 436.03 26.0067C436.362 25.8239 436.591 25.4746 436.591 25.0707Z" fill="#E4AC23"/>
<path opacity="0.3" d="M441.951 33.7736C442.218 34.3291 442.891 34.5653 443.447 34.2985C443.748 34.1537 443.951 33.8882 444.035 33.5878C444.362 33.8507 444.822 33.9234 445.223 33.7308C445.499 33.5982 445.696 33.3651 445.792 33.0963C446.062 33.1895 446.366 33.1817 446.643 33.0491C447.198 32.7823 447.434 32.1095 447.168 31.554C446.934 31.0686 446.391 30.8273 445.887 30.9519C445.87 30.8602 445.844 30.7692 445.802 30.6813C445.535 30.1257 444.863 29.8895 444.307 30.1564C444.035 30.2868 443.841 30.5151 443.744 30.7786C443.63 30.7937 443.517 30.8212 443.408 30.8734C443.403 30.8762 443.398 30.8805 443.392 30.8834C443.086 30.7185 442.71 30.6937 442.375 30.8547C441.819 31.1215 441.583 31.7943 441.85 32.3498C441.903 32.4603 441.975 32.5541 442.057 32.638C441.826 32.9603 441.769 33.393 441.951 33.7736Z" fill="#E4AC23"/>
<path opacity="0.3" d="M419.683 31.1109C419.355 31.6889 419.559 32.4305 420.137 32.759C420.451 32.9373 420.811 32.954 421.129 32.8439C421.096 33.2949 421.315 33.7478 421.732 33.9851C422.019 34.1483 422.347 34.1795 422.644 34.0991C422.727 34.3957 422.922 34.6611 423.209 34.8244C423.787 35.1529 424.529 34.9489 424.857 34.3709C425.144 33.8659 425.025 33.2361 424.604 32.866C424.675 32.794 424.74 32.7155 424.792 32.6241C425.12 32.0461 424.916 31.3045 424.338 30.9759C424.056 30.8152 423.734 30.7837 423.441 30.8593C423.357 30.7678 423.263 30.6842 423.15 30.62C423.144 30.6165 423.137 30.6149 423.131 30.6116C423.09 30.2394 422.88 29.8903 422.532 29.6922C421.954 29.3637 421.212 29.5678 420.884 30.1456C420.818 30.2606 420.78 30.3827 420.755 30.5061C420.328 30.5002 419.908 30.715 419.683 31.1109Z" fill="#E4AC23"/>
<path opacity="0.06" d="M416.505 65.2097V65.6941V66.6855H417.497H448.315V65.187L451.796 38.6676H451.584C451.705 38.4784 451.811 38.274 451.91 38.0621C451.94 37.9864 451.97 37.9108 452.001 37.8351C452.084 37.6157 452.16 37.3886 452.205 37.1464C452.228 37.0631 452.243 36.9799 452.25 36.8966C452.265 36.8587 452.273 36.8133 452.273 36.7755C452.273 36.7604 452.281 36.7377 452.281 36.7226C452.288 36.6545 452.296 36.5863 452.303 36.5258C452.303 36.5182 452.303 36.503 452.303 36.4955C452.311 36.3744 452.318 36.2533 452.318 36.1322C452.318 35.9959 452.311 35.8673 452.303 35.7311C452.296 35.6856 452.296 35.6402 452.288 35.5948C452.281 35.4889 452.266 35.3829 452.235 35.277C452.235 35.2315 452.22 35.1937 452.213 35.1484C452.19 35.0348 452.167 34.9213 452.122 34.8077C452.122 34.8002 452.122 34.7926 452.122 34.7851C452.114 34.7624 452.114 34.7321 452.099 34.7094C452.099 34.6942 452.092 34.6867 452.084 34.6715C452.061 34.5806 452.031 34.4975 451.993 34.4142C451.97 34.3461 451.948 34.2779 451.91 34.2098C451.91 34.2023 451.91 34.2023 451.902 34.1947C451.872 34.1114 451.834 34.0282 451.789 33.9525C451.728 33.8315 451.668 33.7179 451.592 33.6044C451.531 33.506 451.471 33.4076 451.395 33.3167C451.373 33.2789 451.342 33.241 451.312 33.2032C451.244 33.1048 451.168 33.014 451.077 32.9308C451.055 32.8929 451.024 32.8627 450.994 32.8324L450.986 32.8248C450.911 32.7416 450.843 32.6735 450.759 32.6054C450.737 32.5751 450.706 32.5449 450.676 32.5221V32.5146C450.759 32.3632 450.835 32.2118 450.895 32.0529C450.964 31.894 451.024 31.7275 451.077 31.5609C451.122 31.4247 451.16 31.2808 451.191 31.1371C451.206 31.0842 451.213 31.0387 451.221 30.9858C451.251 30.8344 451.274 30.6755 451.289 30.5165C451.312 30.3349 451.319 30.1533 451.319 29.9716C451.319 29.6083 451.281 29.2602 451.213 28.9196C451.191 28.791 451.16 28.6698 451.122 28.5487C451.122 28.5412 451.115 28.5412 451.115 28.5412C451.107 28.4882 451.092 28.4352 451.077 28.3823C450.979 28.0644 450.85 27.7617 450.699 27.4741C450.668 27.4211 450.638 27.3681 450.608 27.3151C450.547 27.2016 450.479 27.0957 450.404 26.9897C450.305 26.8384 450.199 26.6946 450.071 26.5507C450.055 26.5356 450.04 26.5129 450.025 26.4978C449.965 26.4145 449.889 26.3388 449.813 26.2556L449.806 26.2631L449.321 26.7475L444.122 31.9469L443.494 32.5751L442.268 33.8011L441.011 35.0575L437.704 38.3649L437.401 38.6676L437.356 38.713L435.736 40.3327L435.131 40.9381L433.708 42.361L429.78 46.2889L424.808 51.2613L420.176 55.8931L415.847 60.2222L416.505 65.2097Z" fill="#040000"/>
<path fill-rule="evenodd" clip-rule="evenodd" d="M5.67122 71.2991C5.67122 73.909 7.78715 76.025 10.3972 76.025H18.9041V59.0116H5.67122V71.2991ZM5.67122 53.3402H18.9041V36.3265H5.67122V53.3402ZM5.67122 30.6553H18.9041V13.6416H10.3972C7.78715 13.6416 5.67122 15.7576 5.67122 18.3676V30.6553ZM24.5753 13.6416V76.025H49.1505V13.6416H24.5753ZM54.8219 13.6416V30.6553H68.0546V18.3676C68.0546 15.7576 65.9386 13.6416 63.3287 13.6416H54.8219ZM68.0546 36.3265H54.8219V53.3402H68.0546V36.3265ZM68.0546 59.0116H54.8219V76.025H63.3287C65.9386 76.025 68.0546 73.909 68.0546 71.2991V59.0116ZM10.3972 81.6963C4.65502 81.6963 0 77.0413 0 71.2991V18.3676C0 12.6254 4.65502 7.9704 10.3972 7.9704H63.3287C69.0709 7.9704 73.7259 12.6254 73.7259 18.3676V71.2991C73.7259 77.0413 69.0709 81.6963 63.3287 81.6963H10.3972Z" fill="white"/>
</svg>
